<?xml version="1.0" encoding="UTF-8" standalone="no"?>
<!DOCTYPE svg PUBLIC "-//W3C//DTD SVG 1.1//EN"
 "http://www.w3.org/Graphics/SVG/1.1/DTD/svg11.dtd">
<!-- Generated by graphviz version 2.38.0 (20140413.2041)
 -->
<!-- Title: finite_state_machine Pages: 1 -->
<svg width="237pt" height="93pt"
 viewBox="0.00 0.00 236.89 93.30" xmlns="http://www.w3.org/2000/svg" xmlns:xlink="http://www.w3.org/1999/xlink">
<g id="graph0" class="graph" transform="scale(1 1) rotate(0) translate(4 89.2964)">
<title>finite_state_machine</title>
<polygon fill="white" stroke="none" points="-4,4 -4,-89.2964 232.889,-89.2964 232.889,4 -4,4"/>
<!-- S1 -->
<g id="node1" class="node"><title>S1</title>
<ellipse fill="none" stroke="black" cx="20.1482" cy="-32.1482" rx="20.2975" ry="20.2975"/>
<text text-anchor="middle" x="20.1482" y="-28.4482" font-family="Times,serif" font-size="14.00">S1</text>
</g>
<!-- S1&#45;&gt;S1 -->
<g id="edge1" class="edge"><title>S1&#45;&gt;S1</title>
<path fill="none" stroke="black" d="M11.9359,-50.597C10.403,-60.8525 13.1404,-70.2964 20.1482,-70.2964 24.6376,-70.2964 27.3744,-66.4206 28.3586,-60.9386"/>
<polygon fill="black" stroke="black" points="31.8586,-60.5977 28.3605,-50.597 24.8586,-60.5963 31.8586,-60.5977"/>
<text text-anchor="middle" x="20.1482" y="-74.0964" font-family="Times,serif" font-size="14.00">0/0</text>
</g>
<!-- S2 -->
<g id="node2" class="node"><title>S2</title>
<ellipse fill="none" stroke="black" cx="114.445" cy="-52.1482" rx="20.2975" ry="20.2975"/>
<text text-anchor="middle" x="114.445" y="-48.4482" font-family="Times,serif" font-size="14.00">S2</text>
</g>
<!-- S1&#45;&gt;S2 -->
<g id="edge2" class="edge"><title>S1&#45;&gt;S2</title>
<path fill="none" stroke="black" d="M38.4932,-41.0433C44.6005,-43.788 51.6113,-46.5154 58.2964,-48.1482 66.4926,-50.15 75.5612,-51.2488 83.9372,-51.8286"/>
<polygon fill="black" stroke="black" points="83.9021,-55.3309 94.0585,-52.3145 84.2378,-48.3389 83.9021,-55.3309"/>
<text text-anchor="middle" x="67.2964" y="-54.9482" font-family="Times,serif" font-size="14.00">1/1</text>
</g>
<!-- S2&#45;&gt;S1 -->
<g id="edge3" class="edge"><title>S2&#45;&gt;S1</title>
<path fill="none" stroke="black" d="M98.0944,-39.9788C91.7282,-35.67 84.03,-31.3485 76.2964,-29.1482 67.9695,-26.7791 58.6563,-26.4543 50.0883,-27.0265"/>
<polygon fill="black" stroke="black" points="49.6943,-23.5486 40.1232,-28.0922 50.4387,-30.5089 49.6943,-23.5486"/>
<text text-anchor="middle" x="67.2964" y="-32.9482" font-family="Times,serif" font-size="14.00">0/0</text>
</g>
<!-- S3 -->
<g id="node3" class="node"><title>S3</title>
<ellipse fill="none" stroke="black" cx="208.741" cy="-20.1482" rx="20.2975" ry="20.2975"/>
<text text-anchor="middle" x="208.741" y="-16.4482" font-family="Times,serif" font-size="14.00">S3</text>
</g>
<!-- S2&#45;&gt;S3 -->
<g id="edge4" class="edge"><title>S2&#45;&gt;S3</title>
<path fill="none" stroke="black" d="M133.679,-45.826C146.826,-41.2679 164.815,-35.0312 179.771,-29.8457"/>
<polygon fill="black" stroke="black" points="181.242,-33.04 189.544,-26.4572 178.949,-26.4262 181.242,-33.04"/>
<text text-anchor="middle" x="161.593" y="-41.9482" font-family="Times,serif" font-size="14.00">1/1</text>
</g>
<!-- S3&#45;&gt;S1 -->
<g id="edge6" class="edge"><title>S3&#45;&gt;S1</title>
<path fill="none" stroke="black" d="M189.191,-15.196C166.661,-9.86912 127.543,-2.83347 94.2964,-8.14821 78.8364,-10.6196 62.209,-15.8544 48.7196,-20.8062"/>
<polygon fill="black" stroke="black" points="47.1789,-17.648 39.0872,-24.4872 49.6777,-24.1868 47.1789,-17.648"/>
<text text-anchor="middle" x="114.445" y="-11.9482" font-family="Times,serif" font-size="14.00">1/1</text>
</g>
<!-- S3&#45;&gt;S3 -->
<g id="edge5" class="edge"><title>S3&#45;&gt;S3</title>
<path fill="none" stroke="black" d="M200.529,-38.597C198.996,-48.8525 201.733,-58.2964 208.741,-58.2964 213.23,-58.2964 215.967,-54.4206 216.951,-48.9386"/>
<polygon fill="black" stroke="black" points="220.451,-48.5977 216.953,-38.597 213.451,-48.5963 220.451,-48.5977"/>
<text text-anchor="middle" x="208.741" y="-62.0964" font-family="Times,serif" font-size="14.00">0/1</text>
</g>
</g>
</svg>
