<?xml version="1.0" encoding="UTF-8" standalone="no"?>
<!DOCTYPE svg PUBLIC "-//W3C//DTD SVG 1.1//EN"
 "http://www.w3.org/Graphics/SVG/1.1/DTD/svg11.dtd">
<!-- Generated by graphviz version 2.38.0 (20140413.2041)
 -->
<!-- Title: finite_state_machine Pages: 1 -->
<svg width="291pt" height="239pt"
 viewBox="0.00 0.00 290.99 238.51" xmlns="http://www.w3.org/2000/svg" xmlns:xlink="http://www.w3.org/1999/xlink">
<g id="graph0" class="graph" transform="scale(1 1) rotate(0) translate(4 234.513)">
<title>finite_state_machine</title>
<polygon fill="white" stroke="none" points="-4,4 -4,-234.513 286.985,-234.513 286.985,4 -4,4"/>
<!-- B/01 -->
<g id="node1" class="node"><title>B/01</title>
<ellipse fill="none" stroke="black" cx="27.9475" cy="-65.9151" rx="27.8951" ry="27.8951"/>
<text text-anchor="middle" x="27.9475" y="-62.2151" font-family="Times,serif" font-size="14.00">B/01</text>
</g>
<!-- B/01&#45;&gt;B/01 -->
<g id="edge5" class="edge"><title>B/01&#45;&gt;B/01</title>
<path fill="none" stroke="black" d="M17.5398,-91.8943C16.822,-102.702 20.2913,-111.863 27.9475,-111.863 32.9719,-111.863 36.1932,-107.917 37.6112,-102.15"/>
<polygon fill="black" stroke="black" points="41.1224,-102.121 38.3552,-91.8943 34.1407,-101.615 41.1224,-102.121"/>
<text text-anchor="middle" x="27.9475" y="-115.663" font-family="Times,serif" font-size="14.00">001</text>
</g>
<!-- A/00 -->
<g id="node2" class="node"><title>A/00</title>
<ellipse fill="none" stroke="black" cx="141.493" cy="-138.915" rx="28.6953" ry="28.6953"/>
<text text-anchor="middle" x="141.493" y="-135.215" font-family="Times,serif" font-size="14.00">A/00</text>
</g>
<!-- B/01&#45;&gt;A/00 -->
<g id="edge4" class="edge"><title>B/01&#45;&gt;A/00</title>
<path fill="none" stroke="black" d="M46.723,-86.9732C54.4529,-95.2117 63.9989,-104.261 73.895,-110.915 83.2021,-117.174 94.133,-122.476 104.418,-126.727"/>
<polygon fill="black" stroke="black" points="103.418,-130.094 114.006,-130.477 105.968,-123.575 103.418,-130.094"/>
<text text-anchor="middle" x="84.395" y="-125.715" font-family="Times,serif" font-size="14.00">1&#45;&#45;</text>
</g>
<!-- C/10 -->
<g id="node3" class="node"><title>C/10</title>
<ellipse fill="none" stroke="black" cx="255.037" cy="-67.9151" rx="27.8951" ry="27.8951"/>
<text text-anchor="middle" x="255.037" y="-64.2151" font-family="Times,serif" font-size="14.00">C/10</text>
</g>
<!-- B/01&#45;&gt;C/10 -->
<g id="edge6" class="edge"><title>B/01&#45;&gt;C/10</title>
<path fill="none" stroke="black" d="M55.7177,-61.9057C72.1693,-59.6461 93.7016,-57.0543 112.895,-55.9151 138.27,-54.4091 144.734,-54.112 170.09,-55.9151 185.57,-57.016 202.536,-59.2449 217.139,-61.4862"/>
<polygon fill="black" stroke="black" points="216.873,-64.988 227.299,-63.1045 217.974,-58.0751 216.873,-64.988"/>
<text text-anchor="middle" x="141.493" y="-89.7151" font-family="Times,serif" font-size="14.00">000</text>
<text text-anchor="middle" x="141.493" y="-74.7151" font-family="Times,serif" font-size="14.00">010</text>
<text text-anchor="middle" x="141.493" y="-59.7151" font-family="Times,serif" font-size="14.00">011</text>
</g>
<!-- A/00&#45;&gt;B/01 -->
<g id="edge2" class="edge"><title>A/00&#45;&gt;B/01</title>
<path fill="none" stroke="black" d="M121.292,-118.113C113.575,-110.505 104.289,-102.225 94.895,-95.9151 85.3022,-89.4712 74.1008,-83.7886 63.681,-79.1508"/>
<polygon fill="black" stroke="black" points="64.9716,-75.8962 54.4001,-75.1934 62.226,-82.3353 64.9716,-75.8962"/>
<text text-anchor="middle" x="84.395" y="-99.7151" font-family="Times,serif" font-size="14.00">001</text>
</g>
<!-- A/00&#45;&gt;A/00 -->
<g id="edge1" class="edge"><title>A/00&#45;&gt;A/00</title>
<path fill="none" stroke="black" d="M131.057,-165.73C130.467,-176.485 133.946,-185.513 141.493,-185.513 146.445,-185.513 149.646,-181.625 151.094,-175.913"/>
<polygon fill="black" stroke="black" points="154.6,-175.983 151.928,-165.73 147.624,-175.411 154.6,-175.983"/>
<text text-anchor="middle" x="141.493" y="-219.313" font-family="Times,serif" font-size="14.00">1&#45;&#45;</text>
<text text-anchor="middle" x="141.493" y="-204.313" font-family="Times,serif" font-size="14.00">000</text>
<text text-anchor="middle" x="141.493" y="-189.313" font-family="Times,serif" font-size="14.00">011</text>
</g>
<!-- A/00&#45;&gt;C/10 -->
<g id="edge3" class="edge"><title>A/00&#45;&gt;C/10</title>
<path fill="none" stroke="black" d="M168.784,-129.325C181.458,-124.149 196.585,-117.133 209.09,-108.915 215.401,-104.768 221.693,-99.7389 227.484,-94.6443"/>
<polygon fill="black" stroke="black" points="230.018,-97.0698 235.026,-87.7331 225.289,-91.9091 230.018,-97.0698"/>
<text text-anchor="middle" x="198.59" y="-124.715" font-family="Times,serif" font-size="14.00">010</text>
</g>
<!-- C/10&#45;&gt;B/01 -->
<g id="edge9" class="edge"><title>C/10&#45;&gt;B/01</title>
<path fill="none" stroke="black" d="M235.1,-48.2968C219.312,-33.4511 195.388,-14.2444 170.09,-5.91512 145.945,2.03453 137.101,1.84606 112.895,-5.91512 91.6863,-12.7152 71.2778,-27.0621 55.8946,-40.0215"/>
<polygon fill="black" stroke="black" points="53.5623,-37.4115 48.3307,-46.6246 58.1658,-42.6849 53.5623,-37.4115"/>
<text text-anchor="middle" x="141.493" y="-39.7151" font-family="Times,serif" font-size="14.00">000</text>
<text text-anchor="middle" x="141.493" y="-24.7151" font-family="Times,serif" font-size="14.00">001</text>
<text text-anchor="middle" x="141.493" y="-9.71512" font-family="Times,serif" font-size="14.00">011</text>
</g>
<!-- C/10&#45;&gt;A/00 -->
<g id="edge7" class="edge"><title>C/10&#45;&gt;A/00</title>
<path fill="none" stroke="black" d="M227.649,-73.4842C215.015,-76.9335 200.067,-82.2097 188.09,-89.9151 180.124,-95.0401 172.607,-101.869 166.062,-108.798"/>
<polygon fill="black" stroke="black" points="163.427,-106.494 159.366,-116.28 168.643,-111.163 163.427,-106.494"/>
<text text-anchor="middle" x="198.59" y="-93.7151" font-family="Times,serif" font-size="14.00">1&#45;&#45;</text>
</g>
<!-- C/10&#45;&gt;C/10 -->
<g id="edge8" class="edge"><title>C/10&#45;&gt;C/10</title>
<path fill="none" stroke="black" d="M244.63,-93.8943C243.912,-104.702 247.381,-113.863 255.037,-113.863 260.062,-113.863 263.283,-109.917 264.701,-104.15"/>
<polygon fill="black" stroke="black" points="268.212,-104.121 265.445,-93.8943 261.231,-103.615 268.212,-104.121"/>
<text text-anchor="middle" x="255.037" y="-117.663" font-family="Times,serif" font-size="14.00">010</text>
</g>
</g>
</svg>
